<svg xmlns="http://www.w3.org/2000/svg" xmlns:xlink="http://www.w3.org/1999/xlink" width="100" zoomAndPan="magnify" viewBox="0 0 75 74.999997" height="100" preserveAspectRatio="xMidYMid meet" version="1.0"><defs><clipPath id="5018a26b05"><path d="M 26 29.003906 L 51.464844 29.003906 L 51.464844 38 L 26 38 Z M 26 29.003906 " clip-rule="nonzero"/></clipPath><clipPath id="97591b90d3"><path d="M 23.714844 37 L 49 37 L 49 46.253906 L 23.714844 46.253906 Z M 23.714844 37 " clip-rule="nonzero"/></clipPath></defs><g clip-path="url(#5018a26b05)"><path fill="#2196f3" d="M 50.28125 37.390625 C 49.957031 37.390625 49.695312 37.125 49.695312 36.800781 C 49.695312 36.472656 49.957031 36.207031 50.28125 36.207031 C 50.605469 36.207031 50.867188 36.472656 50.867188 36.800781 C 50.867188 37.125 50.605469 37.390625 50.28125 37.390625 Z M 44.332031 36.382812 C 43.75 33.167969 40.960938 30.734375 37.605469 30.734375 C 34.253906 30.734375 31.460938 33.167969 30.878906 36.382812 L 30.09375 36.382812 C 30.683594 32.734375 33.824219 29.949219 37.605469 29.949219 C 41.390625 29.949219 44.527344 32.734375 45.121094 36.382812 Z M 36.425781 36.207031 C 36.75 36.207031 37.015625 36.472656 37.015625 36.800781 C 37.015625 37.125 36.75 37.390625 36.425781 37.390625 C 36.101562 37.390625 35.839844 37.125 35.839844 36.800781 C 35.839844 36.472656 36.101562 36.207031 36.425781 36.207031 Z M 50.28125 35.609375 C 49.773438 35.609375 49.34375 35.929688 49.175781 36.382812 L 46.066406 36.382812 C 45.464844 32.210938 41.90625 29.007812 37.605469 29.007812 C 33.304688 29.007812 29.746094 32.210938 29.148438 36.382812 L 26.765625 36.382812 L 26.765625 37.214844 L 35.324219 37.214844 C 35.488281 37.667969 35.921875 37.988281 36.425781 37.988281 C 37.078125 37.988281 37.605469 37.457031 37.605469 36.800781 C 37.605469 36.140625 37.078125 35.609375 36.425781 35.609375 C 35.921875 35.609375 35.488281 35.929688 35.324219 36.382812 L 31.773438 36.382812 C 32.34375 33.660156 34.738281 31.613281 37.605469 31.613281 C 40.476562 31.613281 42.871094 33.660156 43.441406 36.382812 L 40.847656 36.382812 L 40.847656 37.214844 L 49.175781 37.214844 C 49.34375 37.667969 49.773438 37.988281 50.28125 37.988281 C 50.929688 37.988281 51.460938 37.457031 51.460938 36.800781 C 51.460938 36.140625 50.929688 35.609375 50.28125 35.609375 " fill-opacity="1" fill-rule="nonzero"/></g><g clip-path="url(#97591b90d3)"><path fill="#050a30" d="M 37.605469 45.3125 C 33.800781 45.3125 30.648438 42.5 30.082031 38.820312 L 30.871094 38.820312 C 31.429688 42.066406 34.230469 44.53125 37.605469 44.53125 C 40.980469 44.53125 43.78125 42.066406 44.34375 38.820312 L 45.128906 38.820312 C 44.5625 42.5 41.410156 45.3125 37.605469 45.3125 Z M 24.902344 38.996094 C 24.578125 38.996094 24.316406 38.730469 24.316406 38.40625 C 24.316406 38.078125 24.578125 37.8125 24.902344 37.8125 C 25.226562 37.8125 25.488281 38.078125 25.488281 38.40625 C 25.488281 38.730469 25.226562 38.996094 24.902344 38.996094 Z M 38.785156 38.996094 C 38.460938 38.996094 38.199219 38.730469 38.199219 38.40625 C 38.199219 38.078125 38.460938 37.8125 38.785156 37.8125 C 39.109375 37.8125 39.371094 38.078125 39.371094 38.40625 C 39.371094 38.730469 39.109375 38.996094 38.785156 38.996094 Z M 45.210938 37.988281 L 39.890625 37.988281 C 39.722656 37.535156 39.292969 37.214844 38.785156 37.214844 C 38.132812 37.214844 37.605469 37.75 37.605469 38.40625 C 37.605469 39.0625 38.132812 39.59375 38.785156 39.59375 C 39.292969 39.59375 39.722656 39.273438 39.890625 38.820312 L 43.453125 38.820312 C 42.90625 41.574219 40.496094 43.648438 37.605469 43.648438 C 34.714844 43.648438 32.308594 41.574219 31.761719 38.820312 L 34.394531 38.820312 L 34.394531 37.988281 L 26.007812 37.988281 C 25.839844 37.535156 25.40625 37.214844 24.902344 37.214844 C 24.25 37.214844 23.722656 37.75 23.722656 38.40625 C 23.722656 39.0625 24.25 39.59375 24.902344 39.59375 C 25.40625 39.59375 25.839844 39.273438 26.007812 38.820312 L 29.140625 38.820312 C 29.714844 43.023438 33.285156 46.257812 37.605469 46.257812 C 41.925781 46.257812 45.5 43.023438 46.074219 38.820312 L 48.28125 38.820312 L 48.28125 37.988281 L 45.210938 37.988281 " fill-opacity="1" fill-rule="nonzero"/></g></svg>